{"title":"Californication S0708 HDTV x264 AC3-SSN","uid":10235820,"size":270783482,"categoryP":"video","categoryS":"tv_shows","magnet":"?xt=urn:btih:5b60d972b3663f262cd5a31fde494863e5328ffc&amp;dn=Californication+S0708+HDTV+x264+AC3-SSN&amp;tr=udp%3A%2F%2Ftracker.openbittorrent.com%3A80&amp;tr=udp%3A%2F%2Fopen.demonii.com%3A1337&amp;tr=udp%3A%2F%2Ftracker.coppersurfer.tk%3A6969&amp;tr=udp%3A%2F%2Fexodus.desync.com%3A6969","seeders":2,"leechers":0,"uploader":"somespirit","files":2,"time":1401178342,"description":"IMDB: &lt;a href=&quot; http://www.imdb.com/title/tt0904208/&quot; rel=&quot;nofollow&quot; target=&quot;_NEW&quot;&gt; http://www.imdb.com/title/tt0904208/&lt;/a&gt;\n\n Source: Californication.S07E08.720p.HDTV.x264-DAA\n\n\n\n General\n Complete name                            : Californication S0708 HDTV x264 AC3-SSN.mkv\n Format                                   : Matroska\n Format version                           : Version 4 / Version 2\n File size                                : 258 MiB\n Duration                                 : 27mn 30s\n Overall bit rate                         : 1 312 Kbps\n Encoded date                             : UTC 2014-05-27 06:59:57\n Writing application                      : mkvmerge v6.9.1 ('Blue Panther') 32bit built on Apr 18 2014 18:15:44\n Writing library                          : libebml v1.3.0 + libmatroska v1.4.1\n\n Video\n ID                                       : 1\n Format                                   : AVC\n Format/Info                              : Advanced Video Codec\n Format profile                           : &lt;a class=&quot;__cf_email__&quot; href=&quot;/cdn-cgi/l/email-protection&quot; data-cfemail=&quot;5810313f3018146c7669&quot;&gt;[email&amp;#160;protected]&lt;/a&gt;&lt;script data-cfhash='f9e31' type=&quot;text/javascript&quot;&gt;\n/* &lt;![CDATA[ */!function(){try{var t=&quot;currentScript&quot;in document?document.currentScript:function(){for(var t=document.getElementsByTagName(&quot;script&quot;),e=t.length;e--;)if(t[e].getAttribute(&quot;data-cfhash&quot;))return t[e]}();if(t&amp;&amp;t.previousSibling){var e,r,n,i,c=t.previousSibling,a=c.getAttribute(&quot;data-cfemail&quot;);if(a){for(e=&quot;&quot;,r=parseInt(a.substr(0,2),16),n=2;a.length-n;n+=2)i=parseInt(a.substr(n,2),16)^r,e+=String.fromCharCode(i);e=document.createTextNode(e),c.parentNode.replaceChild(e,c)}t.parentNode.removeChild(t);}}catch(u){}}()/* ]]&gt; */&lt;/script&gt;\n Format settings, CABAC                   : Yes\n Format settings, ReFrames                : 5 frames\n Codec ID                                 : V_MPEG4/ISO/AVC\n Duration                                 : 27mn 30s\n Bit rate                                 : 927 Kbps\n Width                                    : 720 pixels\n Height                                   : 404 pixels\n Display aspect ratio                     : 16:9\n Frame rate mode                          : Constant\n Frame rate                               : 23.976 fps\n Color space                              : YUV\n Chroma subsampling                       : 4:2:0\n Bit depth                                : 8 bits\n Scan type                                : Progressive\n Bits/(Pixel*Frame)                       : 0.160\n Stream size                              : 178 MiB (69%)\n Writing library                          : x264 core 142 r2431 ac76440\n Language                                 : English\n Default                                  : Yes\n Forced                                   : No\n\n Audio\n ID                                       : 2\n Format                                   : AC-3\n Format/Info                              : Audio Coding 3\n Mode extension                           : CM (complete main)\n Format settings, Endianness              : Big\n Codec ID                                 : A_AC3\n Duration                                 : 27mn 30s\n Bit rate mode                            : Constant\n Bit rate                                 : 384 Kbps\n Channel(s)                               : 6 channels\n Channel positions                        : Front: L C R, Side: L R, LFE\n Sampling rate                            : 48.0 KHz\n Bit depth                                : 16 bits\n Compression mode                         : Lossy\n Stream size                              : 75.6 MiB (29%)\n Default                                  : Yes\n Forced                                   : No\n\n\n","torrent":{"xt":"urn:btih:5b60d972b3663f262cd5a31fde494863e5328ffc","amp;dn":"Californication+S0708+HDTV+x264+AC3-SSN","amp;tr":["udp%3A%2F%2Ftracker.openbittorrent.com%3A80","udp%3A%2F%2Fopen.demonii.com%3A1337","udp%3A%2F%2Ftracker.coppersurfer.tk%3A6969","udp%3A%2F%2Fexodus.desync.com%3A6969"],"infoHash":"5b60d972b3663f262cd5a31fde494863e5328ffc","infoHashBuffer":{"type":"Buffer","data":[91,96,217,114,179,102,63,38,44,213,163,31,222,73,72,99,229,50,143,252]},"announce":[],"urlList":[]}}